# xmcd
#
# Track frame offsets: 
#        150
#        14437
#        29523
#        39342
#        55478
#        82933
#        92899
#        113907
#        126645
#        141534
#        157302
#        174688
#
# Disc length: 2504 seconds
#
# Revision: 0
# Processed by: cddbd v1.5.2PL0 Copyright (c) Steve Scherf et al.
# Submitted via: ExactAudioCopy v0.99pb4
#
DISCID=b009c60c
DTITLE=Joe McGuinness - From These Seeds...
DYEAR=2008
DGENRE=Blues
TTITLE0=Hellhounds Blues
TTITLE1=My Name Is Joe
TTITLE2=I Will
TTITLE3=Don't Say a Word
TTITLE4=Ri
TTITLE5=Freight Train
TTITLE6=Trashcan Full of Butterflies
TTITLE7=Sad Affair
TTITLE8=Do Right
TTITLE9=Trovão
TTITLE10=Binti
TTITLE11=No Worries
EXTD=
EXTT0=
EXTT1=
EXTT2=
EXTT3=
EXTT4=
EXTT5=
EXTT6=
EXTT7=
EXTT8=
EXTT9=
EXTT10=
EXTT11=
PLAYORDER=
